<svg viewBox="0 0 4267 4267" xmlns="http://www.w3.org/2000/svg" xml:space="preserve" style="fill-rule:evenodd;clip-rule:evenodd;stroke-linecap:round;stroke-linejoin:round;stroke-miterlimit:1.5"><path style="fill:none" d="M0 0h4266.67v4266.67H0z"/><clipPath id="a"><path d="M0 0h4266.67v4266.67H0z"/></clipPath><g clip-path="url(#a)"><path d="M2608.61 572.328c0-241.336-196.01-437.27-437.45-437.27H525.517c-241.434 0-437.447 195.934-437.447 437.27V2218.33c0 241.33 196.013 437.27 437.447 437.27H2171.16c241.44 0 437.45-195.94 437.45-437.27V572.328Z" style="fill:url(#b)" transform="matrix(-.00062 1.69276 -1.69344 -.00062 4497.08 -148.212)"/><path d="M1275.94 48.837V4199.41" style="fill:none;stroke:#fff;stroke-width:4.33px" transform="matrix(1 0 0 .92414 -1055.31 169.464)"/><path d="M4047.93 4047.94 220.632 218.714" style="fill:none;stroke:#fff;stroke-width:4.16px" transform="matrix(1.00069 .0007 .0007 1.00069 -2.374 -2.375)"/><path d="M1275.94 48.837V4199.41" style="fill:none;stroke:#fff;stroke-width:4.32px" transform="matrix(-.00044 1.00125 -.92517 0 4102.15 -1058.78)"/><path d="M1275.94 48.837V4199.41" style="fill:none;stroke:#fff;stroke-width:4.11px" transform="matrix(-.00049 1.00125 -1.02797 0 4314.57 -235.868)"/><path d="M1275.94 48.837V4199.41" style="fill:none;stroke:#fff;stroke-width:4.11px" transform="matrix(-.00049 1.00125 -1.02797 0 4314.57 855.799)"/><path d="M1275.94 48.837V4199.41" style="fill:none;stroke:#fff;stroke-width:4.11px" transform="matrix(-.00049 1.00125 -1.02797 0 4314.57 1947.47)"/><path d="M1275.94 48.837V4199.41" style="fill:none;stroke:#fff;stroke-width:4.32px" transform="matrix(-.00044 1.00125 -.9242 0 4099.99 2770.38)"/><path d="M1275.94 48.837V4199.41" style="fill:none;stroke:#fff;stroke-width:4.32px" transform="matrix(1 0 0 .92613 2771.98 165.178)"/><path d="M1275.94 48.837V4199.41" style="fill:none;stroke:#fff;stroke-width:4.11px" transform="matrix(1 0 0 1.02797 857.395 -38.446)"/><path d="M1275.94 48.837V4199.41" style="fill:none;stroke:#fff;stroke-width:4.11px" transform="matrix(1 0 0 1.02797 -234.272 -50.203)"/><path d="M1275.94 48.837V4199.41" style="fill:none;stroke:#fff;stroke-width:4.11px" transform="matrix(1 0 0 1.02797 1949.06 -50.203)"/><path d="M4048.04 218.706 220.62 4047.9" style="fill:none;stroke:#fff;stroke-width:4.17px" transform="matrix(1.00068 -.00068 -.00068 1.00068 1.45 -1.451)"/><path d="M1315.75 1353.83 600.978 3042.25 571.871 3368l180.748-254.14 701.891-1674.14s-54.69-13.54-76.92-27.3c-23.13-14.31-61.84-58.59-61.84-58.59Z" style="fill:#d0d0d0;stroke:#fff5f5;stroke-width:33.33px" transform="matrix(-1 0 0 1 3495.94 225.314)"/><g transform="rotate(90 2062.072 1130.659) scale(1.57032)"><circle cx="1402.53" cy="845.909" r="250.505" style="fill:url(#c)"/><path d="M1402.53 595.404c138.25 0 250.5 112.247 250.5 250.505 0 138.257-112.25 250.501-250.5 250.501-138.26 0-250.51-112.244-250.51-250.501 0-138.258 112.25-250.505 250.51-250.505Zm0 21.227c126.54 0 229.28 102.736 229.28 229.278 0 126.542-102.74 229.281-229.28 229.281s-229.28-102.739-229.28-229.281 102.74-229.278 229.28-229.278Z" style="fill:#fff5f5"/></g><circle cx="1402.53" cy="845.909" r="250.505" style="fill:url(#d);stroke:#fff5f5;stroke-width:40.08px" transform="matrix(0 .83165 -.83165 0 2574.59 107.068)"/><path d="M1315.75 1353.83 600.978 3042.25 571.871 3368l180.748-254.14 701.891-1674.14s-54.69-13.54-76.92-27.3c-23.13-14.31-61.84-58.59-61.84-58.59Z" style="fill:url(#e);stroke:#fff5f5;stroke-width:33.33px" transform="translate(249.21 227.215)"/><path d="m1271.93 2016.18-32.15 72.46 277.71.53 3.29-73.99-248.85 1Z" style="fill:url(#f);stroke:#fff5f5;stroke-width:33.33px" transform="translate(249.762 227.54)"/><path d="m1271.93 2016.18-32.15 72.46 277.71.53 3.29-73.99-248.85 1Z" style="fill:url(#g);stroke:#fff5f5;stroke-width:33.33px" transform="matrix(-1 0 0 1 3494.52 227.69)"/><path d="M1677.24 455.597c0-13.931-11.31-25.241-25.24-25.241h-50.49c-13.93 0-25.24 11.31-25.24 25.241v129.368c0 13.931 11.31 25.241 25.24 25.241H1652c13.93 0 25.24-11.31 25.24-25.241V455.597Z" style="fill:#3196db;stroke:#fff5f5;stroke-width:33.33px" transform="translate(245.294 228.737)"/><path d="M1676.14 1923.36c0-14.54-10.73-26.35-23.95-26.35h-47.91c-13.22 0-23.95 11.81-23.95 26.35v285.39c0 14.55 10.73 26.36 23.95 26.36h47.91c13.22 0 23.95-11.81 23.95-26.36v-285.39Z" style="fill:url(#h);stroke:#fff5f5;stroke-width:31.71px" transform="matrix(1.10025 0 0 1 81.479 228.737)"/><path d="M1822.12 1706.4s7.1 318.87-4.11 350.41c-79.1 222.5-471.04 546.42-587.5 741.19-122.53 204.91-55.01 527.64 245.77 576.83 31.47 5.14 1281.81 4.83 1307.52 1.9 247.57-28.22 416.35-335.42 242.24-588.61-19.64-28.57-492.19-529.72-572.05-717.09-17.78-41.71-4.06-362.88-4.06-362.88l-627.81-1.75Z" style="fill:url(#i);stroke:#fff6f6;stroke-width:33.33px" transform="translate(249.51 228.737)"/><path d="M2548.65 1538.7c0-81.72-62.62-148.06-139.76-148.06h-559.77c-77.13 0-139.76 66.34-139.76 148.06s62.63 148.07 139.76 148.07h559.77c77.14 0 139.76-66.35 139.76-148.07Z" style="fill:url(#j);stroke:#fff6f6;stroke-width:30.38px" transform="matrix(1.12839 0 0 1.06509 -16.787 129.323)"/><text x="204.319" y="-608.898" style="font-family:'klingonfont','klingon font';font-size:83.333px;fill:#026dbc" transform="translate(2110.735 2052.94)">Le code est une poésie, le</text><text x="245.904" y="-516.531" style="font-family:'klingonfont','klingon font';font-size:83.333px;fill:#026dbc" transform="translate(2110.735 2052.94)">design est une science.</text><text x="787.734" y="-424.165" style="font-family:'klingonfont','klingon font';font-size:83.333px;fill:#026dbc" transform="translate(2110.735 2052.94)">ManaStudio</text><text x="88.21" y="-608.898" style="font-family:'klingonfont','klingon font';font-size:83.333px;fill:#026dbc" transform="rotate(-67.745 3303.29 714.788)">Laurent Grimaldi</text></g><defs><linearGradient id="b" x1="0" y1="0" x2="1" y2="0" gradientUnits="userSpaceOnUse" gradientTransform="translate(88.07 1395.33) scale(2520.54)"><stop offset="0" style="stop-color:#3297da;stop-opacity:1"/><stop offset=".49" style="stop-color:#2a92e1;stop-opacity:1"/><stop offset="1" style="stop-color:#1283f7;stop-opacity:1"/></linearGradient><linearGradient id="c" x1="0" y1="0" x2="1" y2="0" gradientUnits="userSpaceOnUse" gradientTransform="translate(1152.02 845.909) scale(501.01)"><stop offset="0" style="stop-color:#3096db;stop-opacity:1"/><stop offset="1" style="stop-color:#2d94df;stop-opacity:1"/></linearGradient><linearGradient id="d" x1="0" y1="0" x2="1" y2="0" gradientUnits="userSpaceOnUse" gradientTransform="translate(1152.02 845.909) scale(501.01)"><stop offset="0" style="stop-color:#2f95dc;stop-opacity:1"/><stop offset="1" style="stop-color:#2e94de;stop-opacity:1"/></linearGradient><linearGradient id="e" x1="0" y1="0" x2="1" y2="0" gradientUnits="userSpaceOnUse" gradientTransform="matrix(882.639 0 0 2014.17 571.871 2360.92)"><stop offset="0" style="stop-color:#1a88ef;stop-opacity:1"/><stop offset="1" style="stop-color:#2d94de;stop-opacity:1"/></linearGradient><linearGradient id="f" x1="0" y1="0" x2="1" y2="0" gradientUnits="userSpaceOnUse" gradientTransform="matrix(280.999 0 0 73.9869 1239.78 2052.18)"><stop offset="0" style="stop-color:#2991e2;stop-opacity:1"/><stop offset="1" style="stop-color:#2891e3;stop-opacity:1"/></linearGradient><linearGradient id="g" x1="0" y1="0" x2="1" y2="0" gradientUnits="userSpaceOnUse" gradientTransform="matrix(280.999 0 0 73.9869 1239.78 2052.18)"><stop offset="0" style="stop-color:#2991e2;stop-opacity:1"/><stop offset="1" style="stop-color:#2891e3;stop-opacity:1"/></linearGradient><linearGradient id="h" x1="0" y1="0" x2="1" y2="0" gradientUnits="userSpaceOnUse" gradientTransform="matrix(95.8194 0 0 338.101 1580.33 2066.06)"><stop offset="0" style="stop-color:#2a92e2;stop-opacity:1"/><stop offset="1" style="stop-color:#2790e4;stop-opacity:1"/></linearGradient><linearGradient id="i" x1="0" y1="0" x2="1" y2="0" gradientUnits="userSpaceOnUse" gradientTransform="matrix(962.417 0 0 836.221 2135.05 2542.62)"><stop offset="0" style="stop-color:#2b93e0;stop-opacity:1"/><stop offset="1" style="stop-color:#1b88ef;stop-opacity:1"/></linearGradient><linearGradient id="j" x1="0" y1="0" x2="1" y2="0" gradientUnits="userSpaceOnUse" gradientTransform="matrix(839.286 0 0 296.129 1709.36 1538.7)"><stop offset="0" style="stop-color:#55a6e3;stop-opacity:1"/><stop offset="1" style="stop-color:#2b93e0;stop-opacity:1"/></linearGradient></defs></svg>